# xmcd
#
# Track frame offsets:
#	150
#	17805
#	43772
#	63681
#	75393
#	87485
#	102259
#	113864
#	125372
#	137127
#
# Disc length: 1956 seconds
# Revision: 0
# Processed by: cddbd v1.5.2PL0 Copyright (c) Steve Scherf et al.
# Submitted via: dBpowerAMP V12.0
#
DISCID=8507a20a
DTITLE=Mickey Newbury - His Eye is on the Sparrow [ABC Records] (L)
DYEAR=1978
DGENRE=Country
TTITLE0=Juble Lee's Revival
TTITLE1=Westphalia Texas Waltz
TTITLE2=Wish I Was 13
TTITLE3=His Eye Is On The Sparrow
TTITLE4=The Dragon And The Mouse
TTITLE5=Gone To Alabama
TTITLE6=It Don't Matter Anymore
TTITLE7=I Don't Know What They Wanted Me to Say
TTITLE8=Saint CeCelia
TTITLE9=Juble Lee's Revival Shout
EXTD=
EXTT0=
EXTT1=
EXTT2=
EXTT3=
EXTT4=
EXTT5=
EXTT6=
EXTT7=
EXTT8=
EXTT9=
PLAYORDER=
